<svg width="164" height="164" viewBox="0 0 164 164" fill="none" xmlns="http://www.w3.org/2000/svg">
<path d="M73.5088 107.202C69.1382 103.067 66.9529 100.999 66.2149 98.519C65.7311 96.8943 65.6835 95.1708 66.0768 93.5218C66.6768 91.0048 68.7445 88.8195 72.8801 84.4489L83.9457 72.7543C88.0813 68.3838 90.149 66.1985 92.6291 65.4604C94.2539 64.9766 95.9773 64.929 97.6263 65.3223C100.143 65.9223 102.329 67.9901 106.699 72.1256L112.546 77.6584C115.809 80.7452 117.436 82.2852 118.535 83.8364C120.744 86.9533 121.98 90.6554 122.086 94.4747C122.191 98.2939 121.162 102.059 119.127 105.293C118.116 106.902 116.576 108.53 113.49 111.792C110.403 115.054 108.863 116.682 107.312 117.78C104.195 119.99 100.493 121.226 96.6734 121.331C92.8542 121.437 89.0894 120.407 85.8553 118.373C84.2458 117.362 82.6182 115.822 79.3561 112.735L73.5088 107.202ZM61.4404 82.4866C58.1713 79.3932 56.5367 77.8465 55.7539 76.0953C55.2357 74.9368 54.951 73.6875 54.916 72.419C54.8809 71.1504 55.0962 69.8873 55.5496 68.702C56.2345 66.9101 57.7812 65.2756 60.8745 62.0064C63.9679 58.7373 65.5145 57.1027 67.2658 56.3199C68.4243 55.8017 69.6735 55.517 70.9421 55.482C72.2107 55.4469 73.4738 55.6622 74.6591 56.1156C76.4509 56.8005 78.0855 58.3472 81.3547 61.4405L88.37 68.0786L68.4558 89.1247L61.4404 82.4866Z" fill="#DBFF77" stroke="#DBFF77" stroke-width="2"/>
<path d="M78.413 78.6017L92.4437 91.8778M60.3087 41.5263L64.1936 58.4988M40.3944 62.5724L57.5555 65.5141M79.3562 112.735L62.7609 130.274M129.142 60.1201L112.547 77.6585M97.95 43.9022L101.458 47.2212C104.249 49.862 105.876 53.5033 105.982 57.3441C106.088 61.1849 104.664 64.9105 102.024 67.7014M143.55 87.0497C140.759 84.4089 137.033 82.9849 133.192 83.0911C129.352 83.1972 125.71 84.8247 123.07 87.6156M44.8453 100.025L48.353 103.344C51.1438 105.985 54.8695 107.409 58.7102 107.303C62.551 107.197 66.1923 105.569 68.8331 102.778M90.4451 143.173C87.6542 140.532 86.0267 136.89 85.9206 133.05C85.8144 129.209 87.2384 125.483 89.8792 122.692" stroke="#DBFF77" stroke-width="2"/>
</svg>
