<svg width="480" height="202" viewBox="0 0 480 202" fill="none" xmlns="http://www.w3.org/2000/svg">
<path d="M32.631 70.6H76.5335C79.3357 70.6 81.6398 67.6 81.6398 64.6C81.6398 61.6 79.3357 58.6 76.5335 58.6H32.631V70.6ZM70.4307 23.6H32.631V35.6667H70.4307C73.233 35.6667 75.5371 32.6 75.5371 29.6C75.5371 26.6 73.233 23.6 70.4307 23.6ZM96.4608 45.6C105.926 48.8667 112.278 56.6 112.278 67.8667C112.465 83.5333 100.135 91.9333 85.7499 91.9333H0V2.33333H79.5848C94.0944 2.26667 106.362 10.7333 106.175 26.3333C106.175 34.9333 102.439 41.5333 96.4608 45.6Z" fill="white"/>
<path d="M200.457 48.1333V2.2H233.15V50.3333C233.274 84.2 207.369 93.9333 175.983 94C144.598 93.9333 118.692 84.2 118.817 50.3333V2.2H151.448V48.1333C151.323 62.8667 162.595 65.4 175.983 65.6C189.31 65.4 200.643 62.8667 200.457 48.1333Z" fill="white"/>
<path d="M300.405 57.9333V42.6H357.26V94H340.944L339.325 80.0667C329.611 90.3333 314.852 94 300.654 94C269.144 93.8667 243.363 84.1333 243.487 50.2667V43.7333C243.363 9.8 269.144 0.0666667 300.654 0C329.673 0 353.586 8.46667 357.26 36.0667H322.574C320.519 33.0667 317.53 31.0667 313.669 30C309.808 28.9333 305.449 28.4 300.654 28.4C287.265 28.6 275.931 31.2667 276.118 45.8667V48.0667C275.931 62.8 287.265 65.3333 300.654 65.5333C313.544 65.5333 321.764 64.7333 326.684 57.9333H300.405Z" fill="white"/>
<path d="M400.602 31.7333C400.602 35.6667 410.752 36.2 423.892 36.8667C447.244 38.1333 480.062 39.8667 480 62.3333C480 87.9333 452.6 94 423.207 94C393.876 93.9333 369.528 90.1333 366.414 62.3333H400.602C404.338 69.2667 412.994 71.0667 423.207 71.0667C433.357 71.0667 445.812 69.2667 445.812 62.3333C445.812 58.4 435.662 57.8 422.522 57.1333C399.17 55.8667 366.352 54.1333 366.414 31.7333C366.414 6.13333 393.814 0 423.207 0C452.538 0.2 476.886 3.73333 480 31.7333H445.812C442.076 24.6667 433.42 23 423.207 23C413.056 23 400.602 24.6 400.602 31.7333Z" fill="white"/>
<path d="M150.919 152.818L145.675 188.914C143.511 191.742 140.909 194.115 137.871 196.032C134.874 197.902 131.711 199.316 128.382 200.274C125.052 201.233 121.743 201.712 118.455 201.712C113.503 201.712 109.382 200.538 106.094 198.189C102.806 195.792 100.267 192.629 98.4776 188.698C96.7296 184.719 95.6474 180.333 95.2312 175.54C94.815 170.698 94.9607 165.905 95.6682 161.159L99.8511 132.901C100.6 127.964 101.849 123.194 103.597 118.592C105.345 113.943 107.572 109.772 110.277 106.081C112.982 102.39 116.229 99.4661 120.016 97.309C123.804 95.104 128.111 94.0015 132.939 94.0015C138.1 94.0015 142.387 95.2238 145.8 97.6685C149.213 100.065 151.71 103.517 153.291 108.023C154.915 112.481 155.601 117.682 155.352 123.626L151.98 123.554C152.189 118.281 151.627 113.727 150.295 109.892C148.963 106.057 146.84 103.061 143.927 100.904C141.055 98.6991 137.351 97.5966 132.814 97.5966C128.569 97.5966 124.761 98.5793 121.39 100.545C118.018 102.462 115.105 105.122 112.649 108.526C110.194 111.881 108.175 115.644 106.594 119.815C105.012 123.985 103.867 128.299 103.16 132.757L98.977 161.159C98.3111 165.425 98.1238 169.715 98.4152 174.03C98.7065 178.344 99.5805 182.346 101.037 186.038C102.494 189.681 104.637 192.605 107.468 194.81C110.339 196.967 113.96 198.045 118.33 198.045C121.161 198.045 124.012 197.59 126.883 196.679C129.755 195.768 132.502 194.498 135.124 192.868C137.746 191.238 140.139 189.345 142.304 187.188L147.111 156.485H124.698L125.135 152.818H150.919Z" fill="white"/>
<path d="M228.395 134.411L224.4 161.231C223.567 166.36 222.277 171.321 220.529 176.115C218.822 180.86 216.617 185.175 213.911 189.057C211.206 192.892 207.918 195.984 204.047 198.333C200.218 200.634 195.807 201.76 190.812 201.712C185.859 201.712 181.78 200.514 178.576 198.117C175.371 195.673 172.915 192.509 171.209 188.626C169.544 184.695 168.504 180.357 168.087 175.612C167.713 170.818 167.879 166.024 168.587 161.231L172.52 134.339C173.352 129.306 174.622 124.417 176.328 119.671C178.035 114.877 180.241 110.539 182.946 106.656C185.693 102.726 188.981 99.6339 192.81 97.3809C196.639 95.08 201.071 93.9535 206.108 94.0015C211.06 94.0015 215.139 95.1999 218.344 97.5966C221.549 99.9455 224.004 103.085 225.711 107.016C227.459 110.947 228.52 115.309 228.895 120.102C229.269 124.848 229.103 129.617 228.395 134.411ZM221.028 161.231L225.086 134.195C225.711 129.929 225.898 125.639 225.648 121.325C225.398 116.963 224.566 113.008 223.151 109.461C221.736 105.865 219.613 102.989 216.783 100.832C213.953 98.6752 210.353 97.6206 205.983 97.6685C201.571 97.6206 197.659 98.6272 194.246 100.688C190.833 102.75 187.878 105.53 185.381 109.029C182.925 112.529 180.906 116.459 179.325 120.821C177.785 125.183 176.62 129.665 175.829 134.267L171.896 161.231C171.23 165.497 171.022 169.787 171.271 174.102C171.521 178.416 172.354 182.394 173.769 186.038C175.184 189.681 177.265 192.581 180.012 194.738C182.8 196.895 186.421 197.973 190.875 197.973C195.328 197.973 199.261 196.967 202.674 194.953C206.087 192.892 209.042 190.088 211.539 186.541C214.036 182.994 216.055 179.039 217.595 174.677C219.135 170.267 220.279 165.785 221.028 161.231Z" fill="white"/>
<path d="M307.779 97.309L292.233 202H288.987L256.149 104.643L241.353 202H237.982L253.527 97.309H256.898L289.674 194.378L304.407 97.309H307.779Z" fill="white"/>
<path d="M360.997 198.261L360.498 201.928H316.235L316.734 198.261H360.997ZM333.778 97.2371L318.108 201.928H314.924L330.531 97.2371H333.778ZM363.682 146.203L363.245 149.87H324.101L324.6 146.203H363.682ZM376.23 97.2371L375.731 100.832H331.405L331.842 97.2371H376.23Z" fill="white"/>
<path d="M377.853 197.902C377.978 196.943 378.415 196.08 379.164 195.313C379.914 194.498 380.767 194.091 381.724 194.091C382.723 194.091 383.535 194.522 384.159 195.385C384.825 196.2 385.095 197.135 384.97 198.189C384.846 199.1 384.367 199.939 383.535 200.706C382.702 201.425 381.807 201.784 380.85 201.784C379.81 201.784 378.998 201.401 378.415 200.634C377.874 199.819 377.687 198.908 377.853 197.902Z" fill="white"/>
</svg>
