<svg width="154" height="154" viewBox="0 0 154 154" fill="none" xmlns="http://www.w3.org/2000/svg">
<path d="M31.3442 34.6465C31.5024 33.5305 32.0974 32.523 32.9984 31.8457C33.8994 31.1684 35.0325 30.8768 36.1485 31.0349C51.0895 33.1525 66.3989 29.9253 82.1775 21.2473C82.9833 20.8042 83.911 20.6345 84.8215 20.7635C85.732 20.8925 86.5761 21.3134 87.227 21.9629C99.9727 34.6837 113.782 42.038 128.723 44.1556C129.839 44.3138 130.847 44.9089 131.524 45.8098C132.201 46.7108 132.493 47.844 132.335 48.96L128.16 78.4156C124.183 106.474 104.665 124.741 70.5019 132.902C69.455 133.153 68.3522 132.996 67.4161 132.465C36.8664 115.132 23.1934 92.1551 27.1694 64.1021L31.3442 34.6465Z" fill="url(#paint0_radial_54_6987)"/>
<defs>
<radialGradient id="paint0_radial_54_6987" cx="0" cy="0" r="1" gradientUnits="userSpaceOnUse" gradientTransform="translate(3.59399 -55.1361) rotate(62.5639) scale(269.729 238.271)">
<stop offset="0.338" stop-color="#5745FF"/>
<stop offset="0.514423" stop-color="#5745FF"/>
<stop offset="0.861" stop-color="#DBFF77"/>
</radialGradient>
</defs>
</svg>
