<svg width="125" height="17" viewBox="0 0 125 17" fill="none" xmlns="http://www.w3.org/2000/svg">
<path d="M6.11957 12.7681H14.353C14.8785 12.7681 15.3106 12.2255 15.3106 11.683C15.3106 11.1404 14.8785 10.5979 14.353 10.5979H6.11957V12.7681ZM13.2085 4.26809H6.11957V6.45035H13.2085C13.734 6.45035 14.1661 5.89574 14.1661 5.35319C14.1661 4.81064 13.734 4.26809 13.2085 4.26809ZM18.0901 8.24681C19.8653 8.83759 21.0565 10.2362 21.0565 12.2738C21.0915 15.1071 18.7792 16.6262 16.0814 16.6262H0V0.421986H14.9252C17.6463 0.409929 19.947 1.94113 19.912 4.76241C19.912 6.31773 19.2113 7.51135 18.0901 8.24681Z" fill="white"/>
<path d="M37.5933 8.70496V0.397872H43.7246V9.10284C43.748 15.2277 38.8897 16.9879 33.0037 17C27.1177 16.9879 22.2594 15.2277 22.2827 9.10284V0.397872H28.4023V8.70496C28.3789 11.3695 30.4928 11.8277 33.0037 11.8638C35.5029 11.8277 37.6284 11.3695 37.5933 8.70496Z" fill="white"/>
<path d="M56.3375 10.4773V7.70426H67V17H63.9402L63.6366 14.4801C61.8147 16.3369 59.0469 17 56.3842 17C50.4748 16.9759 45.6399 15.2156 45.6632 9.09078V7.90922C45.6399 1.77234 50.4748 0.0120567 56.3842 0C61.8264 0 66.311 1.53121 67 6.5227H60.495C60.1096 5.98014 59.5491 5.61844 58.825 5.42553C58.1009 5.23262 57.2834 5.13617 56.3842 5.13617C53.8733 5.17234 51.7478 5.65461 51.7828 8.29504V8.69291C51.7478 11.3574 53.8733 11.8156 56.3842 11.8518C58.8016 11.8518 60.3432 11.7071 61.2658 10.4773H56.3375Z" fill="white"/>
<path d="M81.1803 11.6777H82.0498C81.8148 12.7141 81.4505 13.6371 80.957 14.4466C80.4713 15.2485 79.8328 15.8764 79.0416 16.3303C78.2582 16.7842 77.2867 17.0074 76.1273 16.9998C75.195 16.9847 74.4391 16.7766 73.8593 16.3757C73.2796 15.9672 72.8448 15.4376 72.555 14.787C72.2651 14.1288 72.0888 13.4101 72.0262 12.6309C71.9713 11.8442 72.0027 11.0687 72.1202 10.3046L72.7665 6.4918C72.9075 5.68989 73.1308 4.90312 73.4363 4.13147C73.7497 3.35226 74.161 2.65248 74.6702 2.03214C75.1794 1.40423 75.7943 0.904927 76.5151 0.534234C77.2358 0.163541 78.0701 -0.0142403 79.0181 0.000890019C80.1148 0.00845518 80.9805 0.25054 81.615 0.727146C82.2574 1.19619 82.7001 1.83166 82.9429 2.63357C83.1858 3.43547 83.2798 4.32816 83.2249 5.31164H82.3084C82.3554 4.47947 82.2888 3.72673 82.1086 3.05343C81.9284 2.38013 81.5915 1.84301 81.098 1.44205C80.6123 1.03354 79.9033 0.825493 78.9711 0.817928C78.1641 0.810363 77.4552 0.969231 76.8441 1.29453C76.2409 1.61227 75.7238 2.04727 75.293 2.59952C74.8699 3.14422 74.5252 3.75321 74.2589 4.42651C73.9925 5.09981 73.8006 5.78068 73.6831 6.46911L73.0368 10.316C72.9349 10.9439 72.8958 11.5983 72.9193 12.2792C72.9428 12.9525 73.0603 13.5804 73.2718 14.1629C73.4833 14.7454 73.8202 15.222 74.2824 15.5927C74.7446 15.9634 75.3713 16.1563 76.1625 16.1714C77.1731 16.1866 77.9996 16.005 78.642 15.6267C79.2923 15.2409 79.8171 14.7076 80.2167 14.0267C80.624 13.3458 80.9452 12.5628 81.1803 11.6777Z" fill="white"/>
<path d="M95.7986 7.83083L95.6576 8.65922H86.6798L86.8208 7.83083H95.7986ZM88.4777 0.227845L85.5282 16.7502H84.6351L87.5963 0.227845H88.4777ZM97.808 0.227845L94.8468 16.7502H93.9537L96.9149 0.227845H97.808Z" fill="white"/>
<path d="M106.386 0.931405L98.6188 16.7502H97.6553L105.893 0.227845H106.621L106.386 0.931405ZM108.219 16.7502L106.104 0.920057L106.128 0.227845H106.798L109.136 16.7502H108.219ZM108.067 11.1103L107.926 11.9274H100.652L100.793 11.1103H108.067Z" fill="white"/>
<path d="M125 0.227845L122.05 16.7502H121.181L115.341 1.87327L112.65 16.7502H111.733L114.683 0.227845H115.576L121.416 15.0707L124.095 0.227845H125Z" fill="white"/>
</svg>
